<svg width="64" height="64" viewBox="0 0 64 64" fill="none" xmlns="http://www.w3.org/2000/svg">
<rect width="64" height="64" rx="32" fill="#FFB8BF"/>
<path d="M31.9985 22.5602C30.4079 20.222 27.8015 18.5534 24.6612 17.6962C22.7858 17.184 19.7342 17.2872 18.1879 17.9507C16.7949 18.5145 15.5532 19.3961 14.5618 20.5251C13.5704 21.6541 12.8569 22.9993 12.4783 24.453C11.7312 27.6026 11.8613 30.8966 12.8547 33.9774C13.7845 36.7856 15.3067 39.3614 17.3184 41.5307C20.7692 45.4008 25.0281 47.747 29.6398 49.2556C31.1639 49.7535 32.807 49.7535 34.3311 49.2556C38.9497 47.7459 43.2282 45.4022 46.6798 41.53C48.6922 39.3611 50.2151 36.7853 51.1453 33.977C52.1387 30.8962 52.2688 27.6022 51.5217 24.4527C51.1431 22.9989 50.4296 21.6538 49.4382 20.5247C48.4468 19.3957 47.2051 18.5141 45.8121 17.9503C44.2654 17.2854 41.2139 17.1822 39.3388 17.6958C36.1956 18.5534 33.5889 20.222 31.9985 22.5602Z" fill="#FFF6F7"/>
</svg>
