<svg width="20" height="20" viewBox="0 0 20 20" fill="none" xmlns="http://www.w3.org/2000/svg">
<path d="M9.99934 5.07708C9.28354 4.0249 8.11066 3.27404 6.69754 2.8883C5.85359 2.65781 4.4804 2.70427 3.78456 3.00281C3.15772 3.25651 2.59892 3.65324 2.15281 4.1613C1.70669 4.66936 1.38562 5.27467 1.21525 5.92888C0.879019 7.34617 0.937598 8.82846 1.38463 10.2148C1.80302 11.4785 2.48801 12.6376 3.39327 13.6138C4.94615 15.3554 6.86266 16.4111 8.93791 17.09C9.62376 17.3141 10.3632 17.3141 11.049 17.09C13.1274 16.4107 15.0527 15.356 16.6059 13.6135C17.5115 12.6375 18.1968 11.4784 18.6154 10.2147C19.0624 8.8283 19.121 7.34601 18.7847 5.92871C18.6144 5.27451 18.2933 4.6692 17.8472 4.16114C17.4011 3.65308 16.8423 3.25635 16.2154 3.00265C15.5194 2.70345 14.1462 2.65699 13.3025 2.88814C11.888 3.27404 10.715 4.0249 9.99934 5.07708Z" fill="black" stroke="black" stroke-width="0.75"/>
</svg>
